<svg xmlns="http://www.w3.org/2000/svg" viewBox="0 0 1000 1120"><defs><filter id="paper"><feTurbulence baseFrequency=".012" numOctaves="3" seed="8" result="n"/><feDisplacementMap in="SourceGraphic" in2="n" scale="5"/></filter><filter id="shadow"><feDropShadow dx="0" dy="9" stdDeviation="8" flood-opacity=".16"/></filter><clipPath id="de"><path d="M420 45L548 88l54 78 111 28 87 91 85 108-39 103 58 104-69 89-13 116-111 70-48 153-106 48-98-47-91 49-38-102-78-63 8-113-58-79 55-101-58-105 56-116 24-118 95-55 15-102z"/></clipPath><g id="cathedral" fill="#6b5a42" stroke="#4d4030" stroke-width="3"><rect x="-38" y="-5" width="76" height="53" rx="4"/><path d="M-28-5l12-44 12 44M4-5l12-44 12 44M-9 48V12h18v36"/><circle cx="0" cy="-3" r="7" fill="#d4b36b"/></g><g id="gate" fill="#75634a" stroke="#4d4030" stroke-width="3"><rect x="-42" y="2" width="84" height="46"/><rect x="-27" y="-28" width="54" height="30"/><path d="M-18 48V15h12v33M6 48V15h12v33"/><circle cx="0" cy="-13" r="7" fill="#d4b36b"/></g><g id="tower" fill="#75634a" stroke="#4d4030" stroke-width="3"><rect x="-18" y="-8" width="36" height="60"/><path d="M-22-8L0-48 22-8z"/><rect x="-5" y="16" width="10" height="36"/></g></defs><rect width="1000" height="1120" fill="#fbf8ef"/><g fill="none" stroke="#8fb6c6" stroke-width="3" opacity=".45"><path d="M55 170q55-32 110 0t110 0"/><path d="M725 115q55-32 110 0t110 0"/><path d="M755 940q55-32 110 0t110 0"/></g><g clip-path="url(#de)" filter="url(#paper)"><rect x="120" y="30" width="780" height="1050" fill="#e8dfbd"/><circle cx="310" cy="240" r="280" fill="#d5e3c0"/><circle cx="680" cy="270" r="260" fill="#e7c7b5"/><circle cx="300" cy="600" r="300" fill="#c8d8e8"/><circle cx="640" cy="620" r="310" fill="#ead799"/><circle cx="390" cy="910" r="260" fill="#c7e0d9"/><circle cx="700" cy="930" r="280" fill="#dfc7d9"/><g stroke="#fff" stroke-width="4" opacity=".68"><path d="M205 330L825 355"/><path d="M180 570L840 590"/><path d="M205 790L805 770"/><path d="M390 85L410 1030"/><path d="M620 90L605 1025"/><path d="M230 930L760 170"/></g></g><path d="M420 45L548 88l54 78 111 28 87 91 85 108-39 103 58 104-69 89-13 116-111 70-48 153-106 48-98-47-91 49-38-102-78-63 8-113-58-79 55-101-58-105 56-116 24-118 95-55 15-102z" fill="none" stroke="#918b7e" stroke-width="6" stroke-linejoin="round" filter="url(#shadow)"/><g filter="url(#shadow)"><g transform="translate(445 225) scale(.75)"><use href="#gate"/></g><g transform="translate(760 360) scale(.78)"><use href="#gate"/></g><g transform="translate(650 520) scale(.75)"><use href="#cathedral"/></g><g transform="translate(280 560) scale(.72)"><use href="#cathedral"/></g><g transform="translate(430 685) scale(.73)"><use href="#cathedral"/></g><g transform="translate(420 800) scale(.68)"><use href="#tower"/></g><g transform="translate(335 970) scale(.72)"><use href="#cathedral"/></g><g transform="translate(670 955) scale(.78)"><use href="#cathedral"/></g></g><g transform="translate(760 90)" fill="#c99755" stroke="#7c603d" stroke-width="3"><path d="M0 45C-30 15-26-28 0-43C26-28 30 15 0 45z"/><path d="M0-43v88"/><rect x="-9" y="45" width="18" height="12"/></g><g transform="translate(160 165)" fill="#c7a86b" stroke="#78654d" stroke-width="3"><path d="M-30 12h60l-8 8h-44z"/><path d="M0 12V-28l32 28z" fill="#e7dfcc"/></g></svg>